<svg width="84" height="85" viewBox="0 0 84 85" fill="none" xmlns="http://www.w3.org/2000/svg">
<path d="M45.8574 73.2636C46.7876 73.2636 47.5908 73.2567 48.394 73.2636C49.5296 73.2752 50.0212 73.7506 49.9981 74.907C49.9704 76.2849 50.0489 77.6928 49.7904 79.0292C49.2018 82.0551 46.3536 84.3055 43.2631 84.3078C31.1664 84.3217 19.0697 84.324 6.97293 84.3078C3.32614 84.3032 0.28407 81.2242 0.244833 77.5751C0.233292 76.6242 0.228676 75.6733 0.244833 74.7246C0.263297 73.7899 0.759538 73.289 1.68739 73.2682C2.54831 73.2498 3.40923 73.2636 4.38786 73.2636C4.38786 72.8805 4.38786 72.5481 4.38786 72.2134C4.38786 63.0549 4.38786 53.8987 4.38786 44.7402C4.38786 43.2422 4.77793 42.8522 6.26896 42.8522C10.3589 42.8522 14.4488 42.8568 18.5388 42.8499C19.3535 42.8499 19.8636 43.2445 20.016 44.0154C20.1475 44.6848 19.8244 45.2064 19.2128 45.4788C18.9404 45.6011 18.5988 45.6034 18.2895 45.6034C14.9197 45.6126 11.5499 45.608 8.18006 45.608C7.86847 45.608 7.55918 45.608 7.19912 45.608V73.1898H43.1015V72.3081C43.1015 68.1904 43.0992 64.0728 43.1015 59.9528C43.1015 58.8357 43.7824 58.1871 44.7357 58.3626C45.4766 58.4987 45.8551 59.0204 45.8574 59.9551C45.862 64.0451 45.8574 68.1327 45.8574 72.2227C45.8574 72.5343 45.8574 72.8458 45.8574 73.2613V73.2636ZM47.1938 76.0818H3.00762C3.00762 76.6265 2.97992 77.1158 3.01224 77.6005C3.12764 79.3408 4.2563 80.9473 5.88582 81.305C7.17604 81.5866 8.53782 81.5404 9.86035 81.6397C10.0335 79.2947 10.262 78.7846 11.2106 78.8123C13.1055 78.8677 12.5354 80.4395 12.7293 81.5012H37.5182C37.6914 79.2947 37.9152 78.7869 38.8569 78.8123C40.7565 78.8654 40.1887 80.4326 40.3734 81.4897C45.3173 82.0321 47.5469 80.2664 47.1915 76.0841L47.1938 76.0818Z" fill="white"/>
<path d="M41.689 33.9337C35.8888 38.716 30.167 43.4361 24.3875 48.2046C25.4216 49.9934 26.4394 51.7545 27.455 53.5155C27.6119 53.7902 27.7804 54.0603 27.9143 54.3442C28.2744 55.1012 28.0828 55.856 27.4504 56.2391C26.7602 56.6592 25.9824 56.4907 25.5116 55.7313C24.7868 54.5588 24.1175 53.3494 23.4274 52.1561C22.9957 51.4106 22.5664 50.6651 22.0725 49.8134C21.5301 50.1134 21.0131 50.3904 20.5053 50.6835C19.4828 51.2698 18.458 51.8514 17.4471 52.4584C15.9422 53.3609 15.5337 54.8635 16.3877 56.3822C17.2324 57.8848 18.0934 59.3827 18.9774 60.8622C19.8498 62.3209 21.4193 62.8241 22.8296 61.8939C28.489 58.1525 34.9817 56.3614 41.1974 53.9287C44.4518 52.6546 47.7408 51.4637 51.0737 50.2127C49.3288 47.1937 47.6185 44.2347 45.9082 41.2734C45.6358 40.8003 45.3519 40.3317 45.0888 39.8539C44.611 38.9815 44.7888 38.169 45.5343 37.7628C46.2406 37.3774 47.023 37.6197 47.5008 38.4414C49.2642 41.4719 51.0091 44.5163 52.7609 47.5537C53.2064 48.327 53.6588 49.0932 54.0973 49.8711C54.8105 51.1359 54.5359 51.8583 53.1395 52.3846C47.8193 54.388 42.4991 56.3845 37.179 58.3856C35.7572 58.9211 34.3354 59.4566 32.8652 60.0082C33.7053 61.4808 34.5385 62.891 35.3233 64.3244C36.8189 67.0502 35.3025 70.1061 32.2397 70.5793C30.6748 70.8216 29.0245 69.9884 28.1174 68.4535C27.2103 66.921 26.3356 65.3699 25.3985 63.7427C22.7511 65.5223 20.1291 65.8339 17.5509 63.5765C17.057 63.8512 16.5654 64.1443 16.0553 64.4005C13.9688 65.4415 11.5591 64.7167 10.4605 62.7295C9.37106 60.7607 9.96886 58.3279 11.9908 57.1947C12.9878 56.6361 13.3571 56.1145 13.2533 54.9096C13.0848 52.9755 14.045 51.429 15.6191 50.2888C15.7114 50.2219 15.806 50.1527 15.9099 50.1042C21.1562 47.5745 25.4469 43.7177 29.8785 40.0571C33.5622 37.015 37.2482 33.9752 40.9366 30.9378C41.9614 30.093 42.7923 30.2476 43.4801 31.404C43.8632 32.0457 44.2464 32.6873 44.6041 33.3451C45.0519 34.1691 44.8742 34.9746 44.1817 35.3878C43.4755 35.8102 42.723 35.5793 42.2014 34.7784C42.0468 34.5407 41.9013 34.296 41.6798 33.9406L41.689 33.9337ZM27.8127 62.3786C28.7844 64.052 29.6846 65.6746 30.6609 67.2533C31.0648 67.9042 31.7527 67.955 32.4174 67.6272C33.0336 67.3226 33.3199 66.5655 32.9736 65.9308C32.0873 64.3036 31.1364 62.711 30.167 61.0307C29.3453 61.5016 28.6113 61.9216 27.8104 62.3809L27.8127 62.3786ZM15.9076 61.1669C15.4483 60.3775 15.0144 59.6274 14.5827 58.8842C12.794 59.8028 12.3393 60.5137 12.8955 61.4231C13.4333 62.3025 14.3289 62.2471 15.9076 61.1669Z" fill="white"/>
<path d="M70.7086 1.38029C73.4437 1.38029 76.1811 1.37567 78.9162 1.38029C81.4413 1.3849 83.1816 3.13906 83.1839 5.68258C83.1885 11.0974 83.1885 16.5098 83.1839 21.9246C83.1839 24.5166 81.4459 26.2546 78.8562 26.2546C73.4414 26.2592 68.0266 26.2592 62.6119 26.2546C60.0683 26.2546 58.3119 24.512 58.3049 21.9916C58.298 19.3719 58.3003 16.7499 58.3049 14.1302C58.3049 13.0292 58.8012 12.4361 59.6944 12.443C60.583 12.4499 61.0608 13.0408 61.0631 14.1556C61.0654 16.6599 61.0608 19.1665 61.0654 21.6707C61.0677 23.0002 61.5617 23.4964 62.8911 23.4988C68.1328 23.5034 73.3745 23.5034 78.6162 23.4988C79.9318 23.4988 80.4234 22.9933 80.4257 21.6523C80.4303 16.4406 80.4303 11.2289 80.4257 6.01494C80.4257 4.62547 79.9433 4.14077 78.5608 4.14077C73.3491 4.13846 68.1351 4.13846 62.9234 4.14077C61.5478 4.14077 61.0747 4.62778 61.0677 6.02417C61.0654 6.772 61.0862 7.52213 61.0608 8.26995C61.0331 9.13318 60.4492 9.68943 59.6413 9.66635C58.8727 9.64326 58.3326 9.09625 58.3142 8.26533C58.2934 7.229 58.2749 6.19036 58.3211 5.15633C58.4134 3.12059 60.2391 1.40337 62.328 1.38721C65.1207 1.36644 67.9158 1.3826 70.7086 1.38029Z" fill="white"/>
<path d="M70.7455 69.109C68.0104 69.109 65.273 69.1159 62.5379 69.109C60.0706 69.1021 58.3118 67.3341 58.3095 64.8552C58.3026 59.385 58.3026 53.9125 58.3095 48.4423C58.3118 46.0212 60.0867 44.2439 62.501 44.2393C68.0012 44.2324 73.5037 44.2301 79.0039 44.2393C81.3766 44.2439 83.1723 46.0165 83.1838 48.3662C83.1977 51.0436 83.1908 53.7233 83.1838 56.4007C83.1838 57.4531 82.7038 58.0325 81.8405 58.0509C80.945 58.0717 80.428 57.4739 80.428 56.3868C80.4234 53.8825 80.428 51.3759 80.4257 48.8717C80.4234 47.4799 79.9433 46.9975 78.5607 46.9975C73.3491 46.9952 68.1351 46.9952 62.9234 46.9975C61.5478 46.9975 61.07 47.4845 61.0677 48.8809C61.0654 54.0926 61.0654 59.3042 61.0677 64.5182C61.0677 65.8523 61.5639 66.3532 62.8842 66.3532C68.1258 66.3578 73.3675 66.3578 78.6092 66.3532C79.9294 66.3532 80.4188 65.85 80.428 64.5159C80.4326 63.7681 80.4141 63.018 80.4326 62.2701C80.4534 61.3838 80.9958 60.8276 81.8059 60.8276C82.6138 60.8276 83.1631 61.3838 83.1838 62.2678C83.2023 63.1611 83.1954 64.0543 83.1885 64.9452C83.17 67.3133 81.402 69.0998 79.0431 69.1113C76.278 69.1252 73.5129 69.1136 70.7478 69.1136L70.7455 69.109Z" fill="white"/>
<path d="M0.240223 26.1738C0.240223 22.6632 0.240223 19.1549 0.240223 15.6443C0.240223 14.2525 0.657988 13.8232 2.01284 13.8232C7.2776 13.8232 12.5447 13.8232 17.8094 13.8232C19.1643 13.8232 19.5867 14.2571 19.5867 15.642C19.5867 22.7186 19.5867 29.7975 19.5867 36.8741C19.5867 38.2613 19.1643 38.6975 17.8117 38.6975C12.547 38.6975 7.27991 38.6975 2.01515 38.6975C0.660296 38.6975 0.240223 38.2636 0.237915 36.8764C0.237915 33.3081 0.237915 29.7421 0.237915 26.1738H0.240223ZM3.03763 35.877H16.7616V16.6275H3.03763V35.877Z" fill="white"/>
<path d="M22.3609 12.4176C22.3747 5.48178 27.9326 -0.0207142 34.9054 5.86218e-05C41.7604 0.0208315 47.2514 5.60411 47.2375 12.5422C47.226 19.4157 41.6104 24.8952 34.603 24.8744C27.8634 24.8536 22.3447 19.2403 22.3609 12.4199V12.4176ZM34.8638 2.75823C29.5183 2.74438 25.1375 7.10668 25.1237 12.4568C25.1098 17.687 29.4929 22.0885 34.7369 22.1093C40.0824 22.1301 44.484 17.747 44.4747 12.413C44.4678 7.15515 40.1055 2.77208 34.8638 2.75823Z" fill="white"/>
<path d="M70.7779 51.1451C73.8523 51.152 76.2804 53.6078 76.2712 56.703C76.2619 59.7774 73.8084 62.2032 70.711 62.1963C67.6389 62.1893 65.2062 59.7289 65.2177 56.6384C65.2292 53.5617 67.6804 51.1382 70.7756 51.1451H70.7779ZM73.5061 56.6638C73.5061 55.1981 72.202 53.8987 70.7387 53.9102C69.2546 53.9217 67.9805 55.2004 67.9851 56.6776C67.9874 58.1525 69.2776 59.4358 70.7525 59.4288C72.232 59.4242 73.5061 58.1432 73.5084 56.6638H73.5061Z" fill="white"/>
<path d="M70.7434 12.3784C73.0584 12.5907 73.4969 12.8261 73.5062 13.8071C73.5154 14.8272 72.9961 15.1065 70.7434 15.2404C70.7434 16.5675 70.7365 17.9062 70.7434 19.2472C70.748 20.0135 70.3903 20.519 69.6586 20.7013C68.7884 20.9206 68.0083 20.2813 67.9898 19.3303C67.9644 17.9847 67.9829 16.6391 67.9829 15.2404C66.8519 15.0857 65.354 15.6189 65.2317 13.8071C65.1647 12.8284 65.6633 12.593 67.9806 12.383C67.9806 11.9467 67.976 11.4967 67.9806 11.0489C68.0037 8.73849 69.774 6.9451 72.0659 6.9174C72.9869 6.90586 73.9078 6.90125 74.8264 6.91971C75.7081 6.93817 76.2667 7.4875 76.2667 8.29303C76.2667 9.09855 75.7081 9.64557 74.8264 9.66865C74.1086 9.68712 73.3885 9.67096 72.6683 9.67327C71.1865 9.67788 70.7342 10.1441 70.7388 11.6536C70.7388 11.8798 70.7388 12.106 70.7388 12.3807L70.7434 12.3784Z" fill="white"/>
<path d="M57.3263 41.4626C56.0522 41.4626 55.4591 40.9825 55.3852 40.2047C55.3159 39.4707 55.7914 38.8776 56.6177 38.7044C58.8335 38.2451 61.0493 37.7835 63.2696 37.3519C64.5137 37.1119 65.3746 37.7489 65.1923 38.8268C65.1184 39.2584 64.7168 39.8885 64.3568 39.9762C61.9102 40.5625 59.4336 41.0287 57.3286 41.4603L57.3263 41.4626Z" fill="white"/>
<path d="M59.9183 30.4138C59.542 30.9101 59.3274 31.3601 58.9719 31.6348C57.2501 32.9712 55.4983 34.2706 53.7441 35.5655C52.9824 36.1263 52.1815 36.0456 51.6784 35.4085C51.1775 34.7738 51.2998 33.9221 52.0269 33.3705C53.8087 32.0156 55.5837 30.6515 57.4209 29.3752C57.7902 29.119 58.4826 29.0705 58.9142 29.2298C59.302 29.3729 59.5351 29.9337 59.9206 30.4138H59.9183Z" fill="white"/>
<path d="M48.8095 30.4092C47.577 30.3769 46.8338 29.269 47.4039 28.4473C48.8049 26.4208 50.2982 24.4543 51.8216 22.5155C52.2809 21.9316 53.0103 21.9431 53.6104 22.4001C54.2105 22.8571 54.4043 23.5472 53.9681 24.1566C52.5486 26.1392 51.0738 28.078 49.5781 30.0053C49.3796 30.2615 48.9503 30.3399 48.8095 30.4092Z" fill="white"/>
<path d="M9.86739 27.6395C8.97878 27.6395 8.08785 27.6556 7.19924 27.6349C6.32447 27.6141 5.77053 27.0602 5.77283 26.2569C5.77514 25.4514 6.32908 24.8975 7.20847 24.8882C9.01571 24.8721 10.8229 24.8698 12.6279 24.8882C13.5026 24.8975 14.0589 25.4606 14.0566 26.2639C14.0566 27.0648 13.4957 27.6164 12.6209 27.6349C11.7046 27.6533 10.786 27.6395 9.86739 27.6395Z" fill="white"/>
<path d="M9.96888 30.4115C10.8575 30.4115 11.7484 30.3953 12.637 30.4161C13.5072 30.4369 14.0634 30.9978 14.0565 31.801C14.0496 32.5996 13.4887 33.1558 12.6117 33.1628C10.8044 33.1789 8.99718 33.1812 7.19225 33.1628C6.3221 33.1535 5.76584 32.5811 5.77277 31.7779C5.77969 30.9747 6.33594 30.4346 7.21533 30.4161C8.13164 30.3977 9.05026 30.4115 9.96888 30.4115Z" fill="white"/>
<path d="M11.3329 22.1047C10.8181 22.1047 10.2988 22.1347 9.78643 22.0978C9.04092 22.0424 8.53313 21.4584 8.53775 20.7222C8.54006 19.9859 9.05015 19.3927 9.80028 19.365C10.7997 19.3258 11.806 19.3258 12.8054 19.365C13.5509 19.395 14.0587 20.002 14.0564 20.736C14.0541 21.47 13.5417 22.0447 12.7916 22.0978C12.3069 22.1324 11.8176 22.1047 11.3329 22.1047Z" fill="white"/>
<path d="M30.6563 12.4522C30.6563 11.1274 30.6448 9.80253 30.6586 8.47999C30.6725 7.15745 31.628 6.54811 32.8236 7.13437C35.4802 8.43613 38.1369 9.74252 40.7519 11.1274C41.1789 11.3536 41.6313 11.9837 41.6359 12.4291C41.6382 12.8746 41.1951 13.5163 40.7727 13.7401C38.1322 15.1365 35.4502 16.4591 32.7659 17.7701C31.6211 18.3286 30.6748 17.7077 30.6586 16.4268C30.6425 15.1019 30.654 13.7794 30.654 12.4545L30.6563 12.4522ZM37.1998 12.4338C35.8426 11.7598 34.677 11.1805 33.456 10.5734V14.3033C34.6978 13.6824 35.8588 13.1031 37.1998 12.4338Z" fill="white"/>
</svg>
