<svg width="85" height="85" viewBox="0 0 85 85" fill="none" xmlns="http://www.w3.org/2000/svg">
<path d="M0.495239 6.25535C0.918301 4.71435 1.5233 3.28076 2.70261 2.12995C6.37865 -1.45841 12.3826 -0.360199 14.59 4.32856C14.7807 4.73408 14.9539 4.95986 15.4668 4.95767C21.8654 4.93575 28.2639 4.94232 34.6624 4.94232C34.772 4.94232 34.8794 4.92917 35.1206 4.91383C35.1206 4.16635 35.1162 3.41448 35.1206 2.66261C35.1293 1.00982 36.1157 0.0255982 37.7795 0.0234062C40.9251 0.0190221 44.0684 0.0190221 47.214 0.0234062C48.8778 0.0255982 49.8707 1.00982 49.8817 2.65604C49.8861 3.38817 49.8817 4.12031 49.8817 4.90287C50.1842 4.91821 50.4231 4.94232 50.6599 4.94232C56.894 4.94232 63.1282 4.93575 69.3645 4.95548C69.93 4.95548 70.1996 4.79327 70.4473 4.2606C71.962 1.0142 75.557 -0.656124 78.9831 0.240417C82.4421 1.14573 84.6824 4.29567 84.4939 7.99363C84.3229 11.3343 81.5303 14.2672 78.0625 14.7473C74.9366 15.1791 71.7933 13.4584 70.432 10.5057C70.1974 9.99715 69.9476 9.83932 69.4061 9.8459C66.9182 9.87659 64.4302 9.85905 61.9401 9.85905H61.0764C61.4907 10.1331 61.7011 10.2777 61.916 10.4158C71.2168 16.3255 76.9752 24.6706 79.0204 35.5058C79.404 37.5334 79.4544 39.629 79.5618 41.6983C79.6407 43.2262 78.5666 44.3068 77.1396 44.3156C75.706 44.3244 74.724 43.2744 74.6561 41.7378C74.0576 28.1691 67.5955 18.4628 55.3706 12.6013C53.9786 11.9327 52.4573 11.5294 50.9909 11.0208C50.6621 10.9068 50.307 10.863 49.8795 10.7687C49.8795 11.3474 49.8927 11.8626 49.8773 12.3755C49.8401 13.7258 48.8251 14.767 47.4749 14.7758C44.1671 14.7955 40.8571 14.7933 37.5493 14.7758C36.1574 14.7692 35.1491 13.7236 35.1206 12.3207C35.1118 11.8319 35.1206 11.3431 35.1206 10.635C33.3648 11.24 31.6747 11.6828 30.1008 12.3865C19.6383 17.0621 13.1827 25.0148 10.8767 36.2533C10.5106 38.0332 10.4668 39.8855 10.3528 41.7115C10.2564 43.259 9.31597 44.3134 7.88896 44.3178C6.42688 44.3222 5.38566 43.2393 5.4295 41.6457C5.79776 28.134 11.782 17.7876 23.0578 10.4334C23.277 10.2909 23.5006 10.1506 23.8974 9.9007C23.4765 9.88097 23.2463 9.86124 23.0184 9.86124C20.5019 9.86124 17.9876 9.8459 15.4712 9.88097C15.2016 9.88535 14.8026 10.1046 14.6865 10.3369C13.1191 13.4474 10.3024 15.1002 7.06037 14.7626C3.92138 14.436 1.44877 12.1563 0.637721 8.84195C0.609225 8.74111 0.543464 8.64905 0.495239 8.5526C0.495239 7.78758 0.495239 7.02037 0.495239 6.25535ZM40.0746 9.82179H44.9102V4.99932H40.0746V9.82179ZM10.3375 7.42809C10.355 6.13479 9.20856 4.96205 7.90431 4.94452C6.61101 4.92698 5.43827 6.0756 5.42073 7.37767C5.4032 8.67097 6.55182 9.84371 7.85389 9.86343C9.14719 9.88097 10.3199 8.73454 10.3375 7.43028V7.42809ZM77.1133 4.94452C75.8112 4.9489 74.6561 6.11287 74.6626 7.41055C74.6692 8.71043 75.8332 9.86782 77.1287 9.86124C78.4307 9.85467 79.5859 8.69289 79.5793 7.39521C79.5728 6.09314 78.4132 4.93794 77.1133 4.94452Z" fill="white"/>
<path d="M34.4607 84.0286C33.1061 83.4193 32.5887 82.3868 32.637 80.894C32.7181 78.3272 32.6764 75.7559 32.6413 73.1868C32.6348 72.755 32.4945 72.2662 32.2577 71.9067C29.3621 67.4722 26.4532 63.0443 23.505 58.6427C22.7399 57.5007 22.6544 56.4573 23.2792 55.2078C28.9039 43.9627 34.4958 32.7 40.0877 21.4374C40.6006 20.4027 41.2999 19.6969 42.5318 19.7144C43.7221 19.732 44.4038 20.4225 44.9036 21.4264C50.5086 32.7154 56.118 44.0021 61.7515 55.278C62.3434 56.4616 62.2645 57.4744 61.5345 58.5682C58.5753 62.9961 55.6533 67.4481 52.7423 71.9067C52.5077 72.2662 52.3652 72.755 52.3587 73.1868C52.3236 75.7296 52.2841 78.2724 52.363 80.8129C52.4113 82.3189 51.9531 83.4127 50.5393 84.0286H34.4585H34.4607ZM40.0416 32.8337C39.8619 33.0792 39.8202 33.1209 39.7961 33.1691C35.9908 40.8127 32.1788 48.4563 28.402 56.1153C28.266 56.3937 28.3515 56.9154 28.5313 57.1938C31.028 61.043 33.5686 64.8637 36.0763 68.7041C36.3459 69.1162 36.6265 69.2806 37.124 69.2785C40.7058 69.2565 44.2854 69.2565 47.8672 69.2785C48.3648 69.2806 48.6476 69.125 48.9194 68.7107C51.4117 64.8922 53.9194 61.0846 56.4512 57.2902C56.7844 56.7905 56.7866 56.4156 56.5213 55.8851C52.8212 48.4936 49.1451 41.0889 45.4625 33.6908C45.3464 33.4585 45.217 33.2349 45.0921 33.0069C45.0482 33.0157 45.0022 33.0244 44.9584 33.0332V33.8903C44.9584 41.4068 44.9584 48.9254 44.954 56.4419C44.954 56.7926 44.9452 57.1587 44.8466 57.4919C44.4937 58.6975 43.367 59.4055 42.1372 59.2411C40.9141 59.0767 40.0438 58.0399 40.0438 56.705C40.0394 49.1052 40.0416 41.5076 40.0416 33.9078C40.0416 33.6185 40.0416 33.3313 40.0416 32.8381V32.8337ZM47.3674 79.0725V74.2456H37.6194V79.0725H47.3674Z" fill="white"/>
</svg>
