<svg width="54" height="69" viewBox="0 0 54 69" fill="none" xmlns="http://www.w3.org/2000/svg">
<path d="M39.8088 53.9619C39.8088 54.3108 39.8088 54.5892 39.8088 54.8657C39.8088 57.9815 39.8222 61.0992 39.8031 64.215C39.7897 66.5814 38.4931 68.2442 36.3269 68.7152C36.0066 68.7857 35.6671 68.7953 35.3354 68.7953C25.0803 68.7991 14.8272 68.801 4.57215 68.7953C2.03985 68.7953 0.197838 66.9742 0.17877 64.4553C0.163515 62.3387 0.174956 60.2202 0.174956 58.1036C0.174956 56.5361 0.38471 56.3226 1.92926 56.3206C6.9252 56.3206 11.9211 56.3206 16.919 56.3206C23.4862 56.3206 30.0515 56.3206 36.6187 56.3206C36.9218 56.3206 37.2269 56.3206 37.5683 56.3206V54.0668C37.5187 54.0324 37.4806 53.9829 37.4443 53.9829C35.6214 54.0382 35.6767 53.5042 35.4498 52.0741C35.4307 51.9578 35.3849 51.8377 35.3964 51.7232C35.526 50.3904 34.5116 50.1234 33.581 49.8049C33.4304 49.7535 33.1806 49.8526 33.0338 49.9594C32.4579 50.3808 31.9145 50.8442 31.3424 51.2694C30.778 51.6908 30.2498 51.6622 29.7445 51.1683C28.7586 50.2035 27.7861 49.2234 26.8175 48.2432C26.3484 47.7684 26.3198 47.244 26.6973 46.6968C26.9128 46.3841 27.0978 46.037 27.3609 45.772C28.0836 45.0435 28.2171 44.3228 27.6584 43.396C27.4105 42.9861 27.2103 42.7382 26.7431 42.7C26.1748 42.6543 25.6085 42.5818 25.0422 42.5246C24.207 42.4407 23.8161 42.0784 23.8008 41.2604C23.776 39.9046 23.7817 38.5488 23.8008 37.193C23.8104 36.4761 24.1841 36.0489 24.922 35.9612C25.2977 35.9155 25.6714 35.7801 26.0452 35.7782C27.0386 35.7782 27.5573 35.3129 27.83 34.3537C27.9711 33.8618 28.0111 33.5433 27.6565 33.1582C27.2389 32.7043 26.8804 32.1971 26.499 31.7109C26.0871 31.1846 26.0814 30.6545 26.5543 30.172C27.5554 29.1538 28.566 28.145 29.5843 27.1459C30.0171 26.7206 30.5206 26.7073 31.0144 27.0334C31.5693 27.3995 32.1299 27.7656 32.641 28.1889C33.0262 28.5073 33.337 28.412 33.7813 28.3071C34.9082 28.0421 35.1199 27.3022 35.1733 26.3049C35.28 24.2741 35.4326 24.1674 37.4748 24.1674C38.474 24.1674 39.4732 24.154 40.4724 24.1712C41.3515 24.1864 41.7157 24.5258 41.8511 25.3896C41.8987 25.6947 41.9883 25.9979 41.9902 26.303C41.996 27.3156 42.3926 27.941 43.4433 28.2213C43.9467 28.3548 44.2594 28.372 44.637 28.0192C45.0698 27.613 45.5503 27.2584 46.0232 26.898C46.6258 26.4384 47.0854 26.4403 47.6136 26.9514C48.6223 27.9277 49.6081 28.9269 50.5978 29.9222C51.0459 30.3722 51.1031 30.8699 50.7389 31.4019C50.5101 31.7356 50.3079 32.0941 50.0352 32.3878C49.3717 33.099 49.1714 33.8084 49.7149 34.7161C49.9628 35.1298 50.1096 35.4407 50.6683 35.4464C51.3052 35.4521 51.9402 35.5951 52.5771 35.6771C53.254 35.7648 53.5782 36.1576 53.5782 36.8327C53.5782 38.1884 53.5839 39.5442 53.5782 40.9C53.5744 41.7085 53.2769 42.0574 52.4703 42.21C51.841 42.3282 51.1946 42.3816 50.5787 42.5456C50.3136 42.6161 50.0448 42.8564 49.8827 43.0909C49.221 44.0558 49.509 44.8281 50.2603 45.6823C51.616 47.2212 51.5569 47.2784 50.0867 48.76C49.4003 49.4522 48.7176 50.1501 48.0235 50.8346C47.3561 51.4944 46.9671 51.5268 46.2082 51.0063C45.9145 50.8041 45.5904 50.6287 45.3425 50.3789C44.6503 49.681 43.9486 49.6143 43.0714 50.0833C42.6195 50.3236 42.3659 50.5448 42.3335 51.0539C42.2992 51.6222 42.2076 52.1866 42.1466 52.7548C42.0532 53.6339 41.708 53.9485 40.8042 53.9638C40.501 53.9695 40.1978 53.9638 39.8031 53.9638L39.8088 53.9619ZM48.4068 30.9367C47.808 30.3074 47.2722 29.7411 46.704 29.1442C46.1281 29.6019 45.5618 30.029 45.0221 30.4867C44.5187 30.9138 44.0249 30.9081 43.4452 30.6316C42.6996 30.2769 41.9292 29.9566 41.1455 29.6991C40.5735 29.5104 40.2684 29.1728 40.1749 28.6027C40.0758 27.9944 39.9976 27.3804 39.8622 26.7797C39.8279 26.6272 39.6258 26.406 39.4904 26.3984C38.7848 26.3602 38.0774 26.3812 37.3337 26.3812C37.2575 27.1096 37.1755 27.7656 37.124 28.4234C37.0668 29.1519 36.7064 29.5733 35.9989 29.7983C35.28 30.0271 34.5745 30.3227 33.9071 30.6716C33.3084 30.9863 32.8069 31.0015 32.2634 30.5782C31.7047 30.1434 31.1079 29.7544 30.5606 29.3692C29.9542 29.9604 29.3822 30.5153 28.7929 31.0892C29.2353 31.646 29.6701 32.2105 30.1239 32.7596C30.5415 33.263 30.5377 33.7645 30.2555 34.3423C29.9237 35.0211 29.5938 35.7152 29.3917 36.4398C29.1743 37.2236 28.7205 37.582 27.9463 37.6736C27.298 37.7498 26.6573 37.8929 26.028 38.0035V40.429C26.745 40.5167 27.4448 40.6197 28.1465 40.6845C28.7605 40.7398 29.1286 41.022 29.3383 41.6227C29.611 42.4026 29.9294 43.1729 30.3089 43.9071C30.6216 44.5134 30.5968 45.0207 30.1926 45.5565C29.7673 46.119 29.3745 46.7063 29.0008 47.2364C29.5957 47.8542 30.1354 48.4149 30.7055 49.0079C31.2985 48.5388 31.8801 48.0907 32.4503 47.6292C32.9079 47.2593 33.3599 47.2307 33.8995 47.4919C34.6222 47.8428 35.3659 48.167 36.1324 48.4034C36.8132 48.6132 37.1716 49.0041 37.267 49.6943C37.3642 50.3923 37.4901 51.0863 37.6064 51.7919H40.0605C40.1444 51.094 40.255 50.4151 40.297 49.7344C40.3408 49.025 40.6669 48.6189 41.3476 48.3901C42.1085 48.1346 42.8502 47.8123 43.571 47.4576C44.1202 47.1868 44.595 47.164 45.0946 47.5396C45.6819 47.9801 46.2921 48.392 46.807 48.7581C47.4305 48.186 48.0178 47.6483 48.6337 47.0858C48.157 46.4775 47.7108 45.894 47.2513 45.3219C46.9214 44.9101 46.8661 44.4925 47.0815 43.9986C47.4515 43.1539 47.8061 42.2996 48.1189 41.432C48.3115 40.8942 48.6547 40.6235 49.202 40.5453C49.7893 40.4614 50.3785 40.3775 50.9563 40.244C51.1355 40.2021 51.4063 40.0037 51.4158 39.8626C51.4635 39.159 51.4368 38.4497 51.4368 37.727C50.613 37.6278 49.8617 37.5344 49.1104 37.4505C48.5441 37.3856 48.2447 37.0481 48.0483 36.5333C47.747 35.7381 47.4267 34.9449 47.0606 34.1783C46.8089 33.6482 46.8108 33.1868 47.1559 32.712C47.5888 32.117 48.0045 31.5106 48.4068 30.9386V30.9367ZM37.595 58.5612H2.31825C2.31825 60.3937 2.31825 62.1747 2.31825 63.9557C2.31825 65.8606 3.09816 66.6462 4.99356 66.6462C14.9855 66.6462 24.9754 66.6462 34.9673 66.6462C35.1809 66.6462 35.3964 66.6577 35.6099 66.6348C36.6721 66.5223 37.553 65.7786 37.5778 64.7985C37.6312 62.7353 37.595 60.6683 37.595 58.5631V58.5612Z" fill="white"/>
<path d="M37.6045 10.276H2.31822C2.31822 10.5887 2.31822 10.8881 2.31822 11.1875C2.31822 24.6727 2.31822 38.1599 2.31822 51.6451C2.31822 51.8587 2.32775 52.0741 2.31441 52.2877C2.27436 52.9265 1.80909 53.3822 1.22178 53.3689C0.659261 53.3556 0.226406 52.9189 0.180642 52.3125C0.1692 52.1714 0.174921 52.0265 0.174921 51.8854C0.173014 36.1157 0.192083 20.3461 0.153946 4.57644C0.148225 2.14902 1.78239 0.436668 3.63395 0.0819945C3.98099 0.0152548 4.34329 0.0038137 4.69797 0.0038137C14.8786 0 25.0593 0 35.2419 0C37.9839 0 39.7821 1.77909 39.8012 4.55737C39.8221 7.67316 39.8012 10.789 39.7973 13.9047C39.7973 14.4043 39.8031 14.9039 39.7935 15.4035C39.7783 16.3264 39.3607 16.8508 38.6685 16.8279C37.9916 16.8051 37.6064 16.3017 37.6045 15.4131C37.6006 13.7274 37.6045 12.0418 37.6045 10.276ZM37.5968 7.99733C37.5968 6.63011 37.6235 5.34681 37.5873 4.0654C37.5644 3.23783 36.9104 2.48081 36.0866 2.27678C35.6995 2.18144 35.2876 2.15665 34.8872 2.15665C24.9239 2.15093 14.9606 2.15093 4.99734 2.15283C4.78378 2.15283 4.5683 2.14139 4.35664 2.16237C3.2869 2.26724 2.4231 3.0071 2.35636 4.05587C2.27627 5.35253 2.33729 6.65681 2.33729 7.99733H37.5968Z" fill="white"/>
<path d="M23.7702 13.9944C23.7244 14.1412 23.6558 14.4177 23.5509 14.679C21.5583 19.6997 19.5637 24.7204 17.5672 29.7393C17.5138 29.8708 17.4662 30.0062 17.4013 30.1321C17.0962 30.7308 16.5413 30.9577 15.9845 30.7175C15.4125 30.4696 15.1627 29.9337 15.4049 29.3045C16.0684 27.5807 16.7644 25.8683 17.4452 24.1503C18.8277 20.6722 20.193 17.1884 21.6117 13.7255C21.768 13.3461 22.1818 12.9533 22.5651 12.8102C23.1638 12.589 23.7664 13.1878 23.7645 13.9925L23.7702 13.9944Z" fill="white"/>
<path d="M30.4843 21.8201C29.1476 20.5196 27.9672 19.3831 26.8002 18.2314C26.19 17.6288 26.129 16.9538 26.6076 16.4866C27.1168 15.9889 27.7003 16.0519 28.3467 16.6983C29.7044 18.0598 31.0601 19.4251 32.4083 20.798C33.1119 21.515 33.1195 22.0546 32.4312 22.7544C31.0659 24.1426 29.691 25.5232 28.3143 26.8999C27.7174 27.4987 27.1187 27.5635 26.6324 27.1059C26.1271 26.633 26.1672 25.977 26.7869 25.3706C27.9729 24.2094 29.1819 23.0672 30.4843 21.8182V21.8201Z" fill="white"/>
<path d="M9.46316 21.7781C10.7312 23.0023 11.8601 24.0892 12.987 25.1799C13.1243 25.3115 13.2635 25.4431 13.3817 25.5918C13.765 26.0761 13.7459 26.6825 13.3474 27.081C12.9394 27.4891 12.3101 27.5501 11.8696 27.1192C10.327 25.6013 8.80339 24.0625 7.3008 22.5046C6.86413 22.0508 6.88892 21.4882 7.33512 21.0306C8.81293 19.5128 10.2984 18.0044 11.801 16.5152C12.291 16.0289 12.8783 16.0499 13.3283 16.4847C13.7765 16.9175 13.7917 17.5735 13.2902 18.0712C12.0755 19.2782 10.8323 20.4547 9.46126 21.78L9.46316 21.7781Z" fill="white"/>
<path d="M38.7313 33.3756C41.8853 33.389 44.4366 35.9537 44.4233 39.1019C44.4119 42.2253 41.7957 44.8205 38.678 44.8034C35.5336 44.7862 32.9975 42.2138 33.007 39.0504C33.0165 35.8755 35.5526 33.3623 38.7294 33.3756H38.7313ZM37.6063 42.3836C37.6063 42.1204 37.6063 41.9088 37.6063 41.6952C37.6063 40.6731 37.6006 39.651 37.6082 38.6271C37.6158 37.8052 38.0201 37.2999 38.6684 37.2732C39.3282 37.2465 39.7839 37.7785 39.8049 38.6252C39.8183 39.1476 39.8087 39.672 39.8087 40.1945C39.8087 40.9134 39.8087 41.6304 39.8087 42.3912C41.5993 41.7429 42.4745 40.185 42.1656 38.3773C41.8891 36.7526 40.356 35.5132 38.6474 35.5322C36.9008 35.5532 35.4592 36.8327 35.1865 38.629C34.9424 40.2384 36.0675 42.0098 37.6063 42.3816V42.3836Z" fill="white"/>
<path d="M19.9566 64.0721C18.4368 64.0721 16.919 64.0759 15.3992 64.0721C14.5144 64.0683 14.0358 63.6774 14.032 62.9776C14.0282 62.2797 14.4935 61.8792 15.3954 61.8754C18.4578 61.864 21.5183 61.864 24.5807 61.8754C25.4655 61.8792 25.9327 62.3025 25.9136 63.0062C25.8945 63.6888 25.4045 64.0683 24.514 64.0702C22.9942 64.074 21.4763 64.0702 19.9566 64.0702V64.0721Z" fill="white"/>
<path d="M22.7692 4.00821C23.5986 4.00821 24.43 3.99867 25.2595 4.01202C26.0089 4.02346 26.5085 4.45822 26.5237 5.08176C26.5409 5.71865 26.0737 6.1782 25.3091 6.18583C23.5777 6.2068 21.8462 6.2049 20.1167 6.18583C19.3483 6.1782 18.8868 5.732 18.8944 5.09321C18.904 4.4506 19.375 4.02537 20.1377 4.01202C21.0149 3.99677 21.892 4.00821 22.7692 4.00821Z" fill="white"/>
</svg>
