<svg width="79" height="87" viewBox="0 0 79 87" fill="none" xmlns="http://www.w3.org/2000/svg">
<path d="M16.073 86.0205C15.779 85.7332 15.4132 85.4908 15.2067 85.152C14.5357 84.0434 15.3391 82.6924 16.6789 82.6722C18.4069 82.6453 20.1371 82.6655 21.91 82.6655C21.9504 81.9608 21.9145 81.3122 22.0334 80.6928C22.5092 78.1951 24.5648 76.5255 27.168 76.4895C28.5347 76.4716 29.9037 76.4873 31.3287 76.4873C31.984 73.7315 32.6281 71.0273 33.3036 68.1907H32.2264C23.9118 68.1907 15.5994 68.1974 7.28486 68.1862C3.87375 68.1817 1.19423 66.1799 0.402045 63.0246C0.220269 62.302 0.159676 61.5323 0.159676 60.7827C0.146212 46.7029 0.148456 32.6231 0.148456 18.5433C0.148456 14.0191 3.00751 11.1735 7.55865 11.1735C22.1703 11.1713 36.782 11.1645 51.3937 11.1937C52.2352 11.1937 52.6953 10.9244 53.1374 10.2399C54.6858 7.84543 56.2545 5.4599 57.9039 3.13496C59.6477 0.677609 62.1162 -0.374898 65.0695 0.118815C68.2338 0.646191 70.2558 2.59187 71.0659 5.71349C71.4878 7.3405 71.2634 8.92936 70.5856 10.4599C70.4981 10.6574 70.4173 10.8571 70.3164 11.095C71.1467 11.1847 71.9366 11.1915 72.6907 11.3643C75.8998 12.1003 77.9914 14.7911 78.016 18.2067C78.0407 21.4809 78.0205 24.7574 78.0205 28.0316C78.0205 39.0055 78.025 49.9771 78.0205 60.951C78.0205 64.4429 76.0524 67.1337 72.8769 67.9348C72.1274 68.1234 71.3285 68.1795 70.552 68.1817C62.3788 68.1997 54.2033 68.1929 46.0301 68.1929H44.8722C45.5387 71.0026 46.1827 73.7203 46.838 76.4895C48.097 76.4895 49.2976 76.4895 50.496 76.4895C54.1338 76.4895 56.1647 78.4913 56.2141 82.1156C56.2141 82.2548 56.2276 82.3939 56.2388 82.6655C57.2599 82.6655 58.281 82.6655 59.3043 82.6655C59.9753 82.6655 60.6485 82.661 61.3195 82.6655C62.2756 82.6744 62.886 83.0806 63.1104 83.8661C63.3527 84.7099 63.0206 85.3337 62.3384 85.8162C62.2531 85.8768 62.1768 85.9509 62.096 86.0205H16.073ZM74.5937 50.1028V49.1446C74.5937 38.9269 74.5937 28.7093 74.5937 18.4939C74.5937 18.2695 74.5937 18.0451 74.5802 17.8229C74.4748 15.9715 73.1103 14.6407 71.2679 14.6026C70.3164 14.5846 69.3626 14.6362 68.4133 14.5846C67.7625 14.5487 67.3406 14.7686 66.9277 15.2736C62.3653 20.8705 57.794 26.4562 53.1867 32.0172C52.4888 32.8587 51.9637 33.624 52.4753 34.7528C52.619 35.0692 52.5876 35.4664 52.6145 35.83C52.9444 40.3273 50.0943 43.8686 46.5732 44.5328C44.9754 44.8335 43.2945 44.7999 41.6563 44.746C39.1877 44.6675 36.8718 44.8717 34.9306 46.6648C33.9342 47.5849 32.5428 47.0956 32.1837 45.7559C31.3332 42.5827 30.8327 39.3802 31.1783 36.0611C31.7641 30.4261 36.001 26.3866 41.654 26.2363C42.2106 26.2205 42.554 26.0679 42.8749 25.581C45.1347 22.1474 47.435 18.7408 49.7173 15.3229C49.8497 15.1255 49.9574 14.91 50.1369 14.5981H49.1966C35.2851 14.5981 21.3714 14.6295 7.4599 14.5644C5.21351 14.5532 3.53937 16.0545 3.55508 18.4446C3.61791 28.6891 3.58201 38.9337 3.58425 49.1805C3.58425 49.4744 3.61343 49.7662 3.62914 50.1051C5.21126 50.1051 6.6924 50.0826 8.1713 50.1118C9.37192 50.1365 10.1282 50.9489 10.016 52.0171C9.92398 52.9192 9.21483 53.5027 8.11071 53.5184C6.6363 53.5408 5.15965 53.5229 3.65382 53.5229C3.65382 56.4672 3.58201 59.3151 3.70768 62.1539C3.73685 62.7935 4.37419 63.4802 4.87688 64.0053C5.62867 64.7885 6.68567 64.7818 7.70451 64.7818C28.6155 64.7818 49.5243 64.7818 70.4353 64.7773C70.8549 64.7773 71.2768 64.7616 71.692 64.7122C73.2472 64.5215 74.5152 63.258 74.5533 61.6849C74.6161 59.0547 74.5735 56.4246 74.569 53.7944C74.569 53.7226 74.5017 53.6508 74.4411 53.5229C74.0663 53.5229 73.6758 53.5229 73.2876 53.5229C56.4093 53.5229 39.5288 53.5229 22.6506 53.5184C22.2332 53.5184 21.8045 53.5184 21.4006 53.4309C20.6308 53.2671 20.1932 52.7487 20.1214 51.9677C20.0474 51.1441 20.4266 50.5382 21.1919 50.2644C21.6003 50.1185 22.0693 50.1051 22.5114 50.1051C39.475 50.0983 56.4385 50.0983 73.4021 50.0983C73.7611 50.0983 74.1179 50.0983 74.5982 50.0983L74.5937 50.1028ZM55.7092 23.6241C56.7662 22.3382 57.7738 21.1129 58.7814 19.8853C61.5103 16.555 64.2639 13.2426 66.9591 9.88312C68.5322 7.92173 68.0049 5.16816 65.9066 3.93387C64.0282 2.82975 61.7908 3.38406 60.4892 5.32076C57.5404 9.70359 54.6118 14.0999 51.6742 18.4894C51.3645 18.9517 51.0593 19.414 50.7227 19.9235C52.3968 21.1667 54.0283 22.3763 55.7092 23.6241ZM34.8722 42.3717C36.0886 42.0665 37.2061 41.6446 38.3529 41.5324C39.9305 41.3775 41.5306 41.4426 43.1217 41.4426C44.4929 41.4426 45.8798 41.5189 47.0961 40.72C48.851 39.5665 49.5916 37.4503 49.1091 35.1635C48.9565 34.4431 48.6536 33.909 48.0207 33.4781C46.6832 32.5625 45.3367 31.6402 44.1226 30.5742C43.0656 29.6429 41.9839 29.4566 40.6621 29.7349C37.6954 30.3565 35.6465 31.9454 34.8565 34.9593C34.2012 37.4548 34.4369 39.9413 34.8722 42.374V42.3717ZM52.7806 82.6161C53.0319 80.6188 52.4305 79.9186 50.505 79.9186C42.8367 79.9186 35.1662 79.9186 27.4979 79.9186C25.7385 79.9186 24.9867 80.9173 25.4445 82.6161H52.7806ZM36.7775 68.2311C36.1222 70.9959 35.4849 73.6933 34.8363 76.4379H43.3416C42.6841 73.6686 42.04 70.9644 41.3892 68.2311H36.7775ZM53.5593 26.252C51.9502 25.0603 50.413 23.9225 48.8264 22.7488C47.7312 24.3848 46.6989 25.931 45.6397 27.5132C47.0871 28.5836 48.4897 29.6204 49.9237 30.6797C51.158 29.1761 52.3272 27.7533 53.5615 26.2497L53.5593 26.252Z" fill="white"/>
<path d="M16.7395 51.8129C16.744 52.7621 15.9945 53.5094 15.0519 53.5027C14.1161 53.496 13.3755 52.7285 13.3912 51.7814C13.4069 50.8928 14.1565 50.1365 15.0407 50.1163C15.9451 50.0961 16.7373 50.8883 16.7395 51.8129Z" fill="white"/>
</svg>
