<svg width="97" height="68" viewBox="0 0 97 68" fill="none" xmlns="http://www.w3.org/2000/svg">
<path d="M0.373535 5.07826C0.501487 4.72953 0.62693 4.37829 0.75739 4.02956C1.65807 1.62858 3.88092 0.0128792 6.43995 0.0103703C27.3136 -0.00217395 48.1873 -0.00468281 69.0635 0.0103703C72.3652 0.0103703 75.0572 2.50919 75.1349 5.80332C75.2529 10.7458 75.1851 15.6932 75.1952 20.6382C75.1952 21.0095 75.1952 21.3783 75.1952 21.6944C75.3231 21.7872 75.3758 21.86 75.4209 21.855C77.0944 21.7044 77.8897 22.5901 78.138 24.1355C78.3739 25.6132 79.0889 26.6394 80.6795 26.8627C80.8903 26.8928 81.1236 26.9655 81.2892 27.0935C82.6916 28.1848 83.9636 27.7784 85.351 26.9505C87.0796 25.9218 87.2979 26.0322 88.7329 27.4648C89.6411 28.373 90.5318 29.2962 91.4601 30.1819C92.1926 30.8818 92.4435 31.6671 91.8414 32.5201C90.6271 34.2437 90.5318 35.8393 91.5378 37.8213C92.2002 39.1259 92.7697 40.0668 94.2424 40.2976C94.6388 40.3603 95.0201 40.5234 95.4015 40.6639C96.1516 40.9424 96.5581 41.4517 96.548 42.2946C96.528 43.9229 96.5129 45.5511 96.553 47.1769C96.5781 48.1578 96.0889 48.6897 95.2309 48.9732C94.4607 49.2291 93.6654 49.4173 92.9227 49.7384C92.5765 49.8864 92.2278 50.2226 92.0647 50.5638C91.5805 51.5749 91.154 52.6161 90.7777 53.6723C90.6497 54.0336 90.6271 54.5203 90.7651 54.8665C91.0888 55.6769 91.5278 56.4396 91.9367 57.2123C92.3256 57.9474 92.2127 58.5997 91.6407 59.1792C90.4515 60.3785 89.2548 61.5752 88.0555 62.7644C87.4735 63.3389 86.7635 63.502 86.0961 63.0178C84.2596 61.6906 82.526 61.6254 80.4512 62.7117C79.2745 63.3289 78.4291 63.8583 78.2158 65.1854C78.1606 65.5216 78.0226 65.8428 77.9147 66.1689C77.5158 67.3732 77.1496 67.6416 75.8675 67.6441C74.3346 67.6466 72.7992 67.624 71.2663 67.6516C70.3455 67.6692 69.6807 67.2678 69.5477 66.3972C69.209 64.1643 67.9847 62.9927 65.8296 62.2701C64.5225 61.8311 63.5942 61.7483 62.4025 62.4257C60.1847 63.6851 60.147 63.6174 58.3507 61.8236C57.598 61.0709 56.8077 60.3534 56.1078 59.5556C55.6612 59.0463 55.3476 58.4216 54.8533 57.6614H46.0648C46.5089 58.9309 46.9178 60.1301 47.3468 61.3218C47.7382 62.4056 47.8612 63.8934 48.6389 64.4428C49.4192 64.9948 50.8643 64.6134 52.0183 64.636C52.5502 64.646 53.0846 64.6109 53.614 64.6536C54.4243 64.7188 55.0114 65.3736 55.0114 66.1463C55.0114 66.9316 54.4344 67.5538 53.614 67.6316C53.3355 67.6567 53.052 67.6466 52.7685 67.6466C42.7857 67.6466 32.803 67.6466 22.8178 67.6466C22.5669 67.6466 22.316 67.6542 22.0676 67.6391C21.187 67.5889 20.5548 66.9843 20.5372 66.1764C20.5171 65.351 21.187 64.6611 22.1027 64.646C23.7285 64.6209 25.3542 64.6385 27.0126 64.6385C27.843 62.3128 28.6609 60.0272 29.5315 57.5987H28.3222C21.6562 57.5987 14.9876 57.4958 8.3241 57.6363C4.44039 57.7191 1.63298 56.4847 0.373535 52.606C0.373535 36.7651 0.373535 20.9217 0.373535 5.07826ZM50.7865 42.6007C50.636 41.1531 51.6094 40.7065 52.7434 40.4105C52.9842 40.3478 53.2176 40.2449 53.4609 40.1972C54.6175 39.9714 55.3526 39.4145 55.6461 38.1575C55.882 37.1439 56.8228 36.1956 56.7827 35.2447C56.74 34.2487 55.897 33.2903 55.4153 32.3094C55.0741 31.6194 55.1444 30.9747 55.6988 30.4177C56.9131 29.1984 58.1274 27.9791 59.3542 26.7698C59.8786 26.253 60.4958 26.1602 61.1631 26.4888C61.5269 26.667 61.9183 26.81 62.2444 27.0433C63.5064 27.9465 64.7508 28.0719 66.0529 27.111C66.3439 26.8953 66.7328 26.7523 67.0915 26.7021C68.3284 26.529 68.8352 25.7462 69.0911 24.6122C69.4474 23.0341 69.8262 21.4034 72.1494 21.9503C72.1494 21.4711 72.1494 21.165 72.1494 20.8565C72.1494 16.1298 72.1494 11.4031 72.1494 6.6764C72.1494 4.2102 70.9376 3.00093 68.4639 2.99842C47.9966 2.99842 27.5269 2.99842 7.05964 2.99842C4.62855 2.99842 3.37664 4.26288 3.37664 6.71654C3.37664 18.3601 3.37664 30.0063 3.37664 41.6499C3.37664 41.9534 3.40423 42.257 3.4218 42.5957H50.784L50.7865 42.6007ZM58.5489 57.7868C59.1761 58.3889 59.708 58.9685 60.3176 59.4552C60.5359 59.6308 60.9825 59.7061 61.2434 59.6082C61.8832 59.3724 62.4928 59.0362 63.0849 58.6875C63.8978 58.2083 64.6153 58.2635 65.4508 58.7352C66.5321 59.3448 67.6686 59.977 68.8628 60.238C70.4559 60.5867 71.2537 61.3895 71.6301 62.9525C72.0415 64.6661 72.1494 64.5833 73.9232 64.6611C74.879 64.7037 75.4485 64.5005 75.5966 63.4644C75.6743 62.9174 75.8299 62.3304 76.1284 61.8788C76.4621 61.3695 76.9263 60.8401 77.4581 60.5892C79.0011 59.8566 80.6218 59.2946 82.1798 58.5896C82.802 58.3087 83.3464 58.2183 83.9561 58.5395C84.6736 58.9183 85.3886 59.3122 86.1388 59.6183C86.3796 59.7161 86.8162 59.6609 87.0094 59.4953C88.8734 57.9072 88.8634 57.8972 87.7545 55.712C87.6842 55.5715 87.624 55.426 87.5412 55.2955C87.0746 54.5529 87.18 53.8705 87.5688 53.0953C88.2111 51.8182 88.8383 50.5111 89.2523 49.1488C89.5985 48.0123 90.1103 47.2521 91.312 47.0288C91.6758 46.9611 92.017 46.7453 92.3833 46.6977C93.3392 46.5672 93.6152 46.078 93.57 45.1171C93.4797 43.2505 93.5449 43.2455 91.7712 42.676C91.5027 42.5907 91.2368 42.5054 90.9633 42.4351C90.0952 42.2068 89.6612 41.6599 89.3777 40.7868C88.9061 39.3417 88.3215 37.9167 87.629 36.5644C87.195 35.7189 87.1122 35.0215 87.5738 34.196C87.9978 33.4384 88.7355 32.5527 88.6025 31.8653C88.457 31.1177 87.4685 30.5331 86.8438 29.8808C86.7836 29.8156 86.6932 29.7805 86.5828 29.7102C85.8678 30.0715 85.1227 30.3976 84.4303 30.8116C83.5246 31.3535 82.7067 31.3485 81.8035 30.7715C81.0985 30.3199 80.3283 29.8382 79.5279 29.7002C77.1069 29.2787 75.722 27.964 75.3683 25.5254C75.3382 25.3172 75.0045 25.0212 74.7812 24.9936C72.3325 24.6749 72.2297 24.7502 71.4595 27.0885C71.3917 27.2967 71.3089 27.4999 71.2537 27.7106C71.0555 28.4533 70.5337 28.7945 69.8337 29.0554C68.2908 29.6324 66.7654 30.2622 65.2676 30.9496C64.5827 31.2632 63.9755 31.3435 63.3082 30.9947C62.4577 30.5507 61.5971 30.1267 60.852 29.7478C60.0492 30.5055 59.3266 31.1879 58.5966 31.8754C59.0256 32.7183 59.4195 33.5337 59.8485 34.329C60.2424 35.0591 60.1571 35.7089 59.7958 36.4565C59.1335 37.8264 58.5163 39.2313 58.0371 40.6739C57.7185 41.6373 57.2493 42.252 56.2483 42.4828C55.6135 42.6283 54.9963 42.8692 54.3817 43.095C54.1985 43.1627 53.9125 43.3258 53.9075 43.4537C53.8699 44.3594 53.7469 45.3053 53.9702 46.1533C54.058 46.4919 54.9537 46.6249 55.4906 46.8331C55.8393 46.9686 56.1956 47.0865 56.5569 47.1894C57.3195 47.4102 57.6909 47.9295 57.9618 48.6721C58.5113 50.1925 59.136 51.6903 59.8234 53.153C60.1771 53.9056 60.2298 54.5579 59.8359 55.283C59.4044 56.0758 59.013 56.8912 58.5564 57.7918L58.5489 57.7868ZM50.7137 45.7142H3.44688C3.41427 45.8371 3.38667 45.8948 3.38667 45.955C3.38165 47.5833 3.37413 49.209 3.37664 50.8373C3.37664 53.2935 4.60096 54.5203 7.06215 54.5203C23.3296 54.5203 39.5995 54.5203 55.8669 54.5203C56.1931 54.5203 56.5192 54.4902 56.9307 54.4701C56.4515 53.3587 55.887 52.3978 55.6311 51.3616C55.33 50.1549 54.6125 49.7033 53.5061 49.3746C50.9621 48.6195 50.7589 48.8202 50.7589 45.8923C50.7589 45.8622 50.7438 45.8321 50.7137 45.7167V45.7142ZM45.2996 64.5883C44.5018 62.3529 43.7441 60.1828 42.9363 58.0302C42.861 57.827 42.4746 57.6187 42.2313 57.6162C39.2633 57.5886 36.2953 57.5886 33.3248 57.6162C33.089 57.6162 32.7177 57.832 32.6399 58.0352C31.8271 60.1878 31.0619 62.3554 30.259 64.5883H45.2996Z" fill="white"/>
<path d="M20.8659 22.8359C23.9618 24.5645 26.9323 26.2229 29.9028 27.8837C30.1487 28.0217 30.397 28.1547 30.6354 28.3027C31.4859 28.8346 31.7468 29.5998 31.3479 30.36C30.9214 31.1729 30.0809 31.4263 29.1827 30.9521C28.0512 30.355 26.9423 29.7127 25.8234 29.088C23.016 27.52 20.2111 25.9419 17.3961 24.3839C16.7639 24.0327 16.212 23.6212 16.2019 22.8384C16.1919 22.0557 16.7187 21.6267 17.356 21.2729C21.2598 19.1028 25.1535 16.9125 29.0573 14.7424C30.0107 14.213 30.8913 14.4212 31.3328 15.2241C31.7618 16.0068 31.4884 16.7996 30.5977 17.3591C30.4397 17.4595 30.2741 17.5473 30.111 17.6401C27.3839 19.1605 24.6543 20.6783 21.9296 22.1987C21.6035 22.3793 21.2899 22.5825 20.8684 22.8359H20.8659Z" fill="white"/>
<path d="M54.7304 22.8184C51.6796 21.1098 48.7643 19.4791 45.8515 17.8483C45.553 17.6802 45.2494 17.5172 44.9559 17.339C44.0728 16.7996 43.8018 15.9868 44.2358 15.209C44.6623 14.4463 45.548 14.218 46.4386 14.7097C49.9084 16.6315 53.3656 18.5734 56.8278 20.5052C57.3446 20.7937 57.8715 21.0697 58.3782 21.3783C59.6979 22.1836 59.713 23.4682 58.3757 24.2459C56.4314 25.3749 54.4569 26.4537 52.495 27.5501C50.5331 28.6464 48.5711 29.7478 46.6017 30.8317C45.558 31.4087 44.7 31.2481 44.2358 30.4277C43.7742 29.6123 44.0928 28.7719 45.1139 28.1974C48.2701 26.4236 51.4362 24.6624 54.7304 22.8209V22.8184Z" fill="white"/>
<path d="M41.865 11.7468C41.5639 13.0866 41.2428 14.5492 40.9091 16.0069C39.5368 21.998 38.1619 27.9867 36.787 33.9753C36.5462 35.0265 36.0294 35.5233 35.1914 35.5057C34.3384 35.4881 33.8517 34.9914 33.7262 34.2011C33.666 33.8198 33.7865 33.3983 33.8743 33.0069C35.485 25.952 37.1057 18.8996 38.7214 11.8447C39.0049 10.6128 39.469 10.1261 40.3647 10.1387C41.2051 10.1487 41.8424 10.7809 41.865 11.7493V11.7468Z" fill="white"/>
<path d="M73.6446 35.5107C78.7903 35.5007 82.9826 39.6553 82.9926 44.7734C83.0026 49.8689 78.7752 54.0963 73.6722 54.0938C68.5842 54.0913 64.4346 49.9492 64.407 44.8487C64.3794 39.6729 68.4839 35.5232 73.6446 35.5132V35.5107ZM67.4201 44.7533C67.4101 48.1955 70.2075 51.028 73.6496 51.0581C77.0642 51.0882 79.9218 48.2532 79.9443 44.8135C79.9669 41.3864 77.1344 38.5263 73.7098 38.5138C70.2777 38.5013 67.4327 41.3262 67.4201 44.7533Z" fill="white"/>
</svg>
